<svg width="47" height="43" viewBox="0 0 47 43" fill="none" xmlns="http://www.w3.org/2000/svg">
<path d="M13 8C10.586 8 8.45201 9.445 7.50001 11.5C7.50001 11.5 3.62151 21.377 2.42201 24.3595C2.14151 25.0565 1.99901 25.845 2.00001 26.5C2.00801 31.1945 5.8055 35 10.5 35C15.1945 35 19 31.1945 19 26.5V25H27V26.5C27 31.1945 30.8055 35 35.5 35C40.1945 35 43.992 31.1945 44 26.5C44.001 25.845 43.8585 25.0565 43.578 24.3595C42.378 21.377 38.5 11.5 38.5 11.5C37.548 9.445 35.414 8 33 8C29.6865 8 27 10.6865 27 14V15H19V14C19 10.6865 16.3135 8 13 8ZM18.8595 20C18.875 19.9996 18.8905 19.9996 18.906 20C18.9373 19.9985 18.9687 19.9985 19 20H27C27.2652 20 27.5196 20.1054 27.7071 20.2929C27.8946 20.4804 28 20.7348 28 21C28 21.2652 27.8946 21.5196 27.7071 21.7071C27.5196 21.8946 27.2652 22 27 22H19C18.7348 22.0186 18.473 21.9311 18.2723 21.7568C18.0716 21.5824 17.9484 21.3355 17.9298 21.0702C17.9111 20.805 17.9986 20.5433 18.173 20.3426C18.3473 20.1419 18.5943 20.0186 18.8595 20ZM10.5 20.5C13.8135 20.5 16.5 23.1865 16.5 26.5C16.5 29.8135 13.8135 32.5 10.5 32.5C7.1865 32.5 4.50001 29.8135 4.50001 26.5C4.50001 23.1865 7.1865 20.5 10.5 20.5ZM35.5 20.5C38.8135 20.5 41.5 23.1865 41.5 26.5C41.5 29.8135 38.8135 32.5 35.5 32.5C32.1865 32.5 29.5 29.8135 29.5 26.5C29.5 23.1865 32.1865 20.5 35.5 20.5Z" fill="#00477A"/>
</svg>
