<svg width="47" height="43" viewBox="0 0 47 43" fill="none" xmlns="http://www.w3.org/2000/svg">
<path d="M34.9 3H16.4C14.4374 3 12.5552 3.77964 11.1674 5.16741C9.77964 6.55518 9 8.4374 9 10.4V32.6C9 34.5626 9.77964 36.4448 11.1674 37.8326C12.5552 39.2204 14.4374 40 16.4 40H34.9C35.8813 40 36.8224 39.6102 37.5163 38.9163C38.2102 38.2224 38.6 37.2813 38.6 36.3V6.7C38.6 5.7187 38.2102 4.77759 37.5163 4.0837C36.8224 3.38982 35.8813 3 34.9 3ZM12.7 10.4C12.7 9.4187 13.0898 8.47759 13.7837 7.7837C14.4776 7.08982 15.4187 6.7 16.4 6.7H34.9V25.2H16.4C15.0958 25.2055 13.8174 25.5634 12.7 26.236V10.4ZM16.4 36.3C15.4187 36.3 14.4776 35.9102 13.7837 35.2163C13.0898 34.5224 12.7 33.5813 12.7 32.6C12.7 31.6187 13.0898 30.6776 13.7837 29.9837C14.4776 29.2898 15.4187 28.9 16.4 28.9H34.9V36.3H16.4ZM20.1 14.1H27.5C27.9907 14.1 28.4612 13.9051 28.8081 13.5581C29.1551 13.2112 29.35 12.7407 29.35 12.25C29.35 11.7593 29.1551 11.2888 28.8081 10.9419C28.4612 10.5949 27.9907 10.4 27.5 10.4H20.1C19.6093 10.4 19.1388 10.5949 18.7919 10.9419C18.4449 11.2888 18.25 11.7593 18.25 12.25C18.25 12.7407 18.4449 13.2112 18.7919 13.5581C19.1388 13.9051 19.6093 14.1 20.1 14.1Z" fill="#C70054"/>
</svg>
