<svg width="47" height="43" viewBox="0 0 47 43" fill="none" xmlns="http://www.w3.org/2000/svg">
<path d="M38 17H37.36L34.86 10.76C34.4135 9.65054 33.6456 8.69979 32.6549 8.02983C31.6642 7.35987 30.4959 7.00126 29.3 7.00002H17.3C15.9106 6.99605 14.5628 7.47441 13.4868 8.35345C12.4108 9.23249 11.6732 10.4577 11.4 11.82L10.36 17H10C8.4087 17 6.88258 17.6322 5.75736 18.7574C4.63214 19.8826 4 21.4087 4 23V29C4 29.5304 4.21071 30.0391 4.58579 30.4142C4.96086 30.7893 5.46957 31 6 31H8C8 32.5913 8.63214 34.1174 9.75735 35.2426C10.8826 36.3679 12.4087 37 14 37C15.5913 37 17.1174 36.3679 18.2426 35.2426C19.3678 34.1174 20 32.5913 20 31H28C28 32.5913 28.6321 34.1174 29.7573 35.2426C30.8826 36.3679 32.4087 37 34 37C35.5913 37 37.1174 36.3679 38.2426 35.2426C39.3678 34.1174 40 32.5913 40 31H42C42.5304 31 43.0391 30.7893 43.4142 30.4142C43.7893 30.0391 44 29.5304 44 29V23C44 21.4087 43.3678 19.8826 42.2426 18.7574C41.1174 17.6322 39.5913 17 38 17ZM26 11H29.3C29.6971 11.0036 30.0842 11.1254 30.4119 11.3498C30.7396 11.5742 30.993 11.891 31.14 12.26L33.04 17H26V11ZM15.32 12.6C15.4135 12.1415 15.6648 11.7302 16.0303 11.4379C16.3957 11.1455 16.8521 10.9906 17.32 11H22V17H14.44L15.32 12.6ZM14 33C13.6044 33 13.2178 32.8827 12.8889 32.6629C12.56 32.4432 12.3036 32.1308 12.1522 31.7654C12.0009 31.3999 11.9613 30.9978 12.0384 30.6098C12.1156 30.2219 12.3061 29.8655 12.5858 29.5858C12.8655 29.3061 13.2218 29.1156 13.6098 29.0384C13.9978 28.9613 14.3999 29.0009 14.7654 29.1522C15.1308 29.3036 15.4432 29.56 15.6629 29.8889C15.8827 30.2178 16 30.6044 16 31C16 31.5304 15.7893 32.0391 15.4142 32.4142C15.0391 32.7893 14.5304 33 14 33ZM34 33C33.6044 33 33.2177 32.8827 32.8888 32.6629C32.5599 32.4432 32.3036 32.1308 32.1522 31.7654C32.0008 31.3999 31.9612 30.9978 32.0384 30.6098C32.1156 30.2219 32.3061 29.8655 32.5858 29.5858C32.8655 29.3061 33.2218 29.1156 33.6098 29.0384C33.9978 28.9613 34.3999 29.0009 34.7653 29.1522C35.1308 29.3036 35.4432 29.56 35.6629 29.8889C35.8827 30.2178 36 30.6044 36 31C36 31.5304 35.7893 32.0391 35.4142 32.4142C35.0391 32.7893 34.5304 33 34 33ZM40 27H38.44C37.8776 26.3813 37.1921 25.887 36.4275 25.5487C35.6629 25.2104 34.8361 25.0357 34 25.0357C33.1639 25.0357 32.337 25.2104 31.5724 25.5487C30.8078 25.887 30.1223 26.3813 29.56 27H18.44C17.8776 26.3813 17.1922 25.887 16.4276 25.5487C15.663 25.2104 14.8361 25.0357 14 25.0357C13.1639 25.0357 12.337 25.2104 11.5724 25.5487C10.8078 25.887 10.1224 26.3813 9.56 27H8V23C8 22.4696 8.21071 21.9609 8.58578 21.5858C8.96086 21.2107 9.46956 21 10 21H38C38.5304 21 39.0391 21.2107 39.4142 21.5858C39.7893 21.9609 40 22.4696 40 23V27Z" fill="black"/>
</svg>
