<svg width="47" height="43" viewBox="0 0 47 43" fill="none" xmlns="http://www.w3.org/2000/svg">
<path d="M20.3667 42.5523H1.95833C0.88125 42.5523 0 41.7461 0 40.7606V24.2773C0 21.9481 2.05625 20.0669 4.60208 20.0669H17.8208C20.3667 20.0669 22.4229 21.9481 22.4229 24.2773V40.7606C22.325 41.7461 21.4438 42.5523 20.3667 42.5523ZM3.81875 39.0586H18.4083V24.2773C18.4083 23.919 18.1146 23.6502 17.7229 23.6502H4.60208C4.21042 23.6502 3.91667 23.919 3.91667 24.2773V39.0586H3.81875Z" fill="#E900B6"/>
<path d="M18.5061 20.1563H7.44155C6.36447 20.1563 3.6228 20.1563 3.6228 20.1563V7.61462C3.6228 6.98753 4.01447 6.36045 4.60197 6.0917L15.8624 0.627115C16.4499 0.358365 17.1353 0.358365 17.7228 0.716699C18.3103 1.07503 18.6041 1.61253 18.6041 2.23962L18.5061 20.1563ZM7.44155 20.1563H14.8832V5.10628L7.44155 8.68962V20.1563Z" fill="#E900B6"/>
</svg>
