<svg width="47" height="43" viewBox="0 0 47 43" fill="none" xmlns="http://www.w3.org/2000/svg">
<path d="M40.5 19V11.5C40.5 10.3065 40.0259 9.16193 39.182 8.31802C38.3381 7.47411 37.1935 7 36 7H12C10.8065 7 9.66193 7.47411 8.81802 8.31802C7.97411 9.16193 7.5 10.3065 7.5 11.5V19C6.30653 19 5.16193 19.4741 4.31802 20.318C3.47411 21.1619 3 22.3065 3 23.5V32.5C3 33.6935 3.47411 34.8381 4.31802 35.682C5.16193 36.5259 6.30653 37 7.5 37H40.5C41.6935 37 42.8381 36.5259 43.682 35.682C44.5259 34.8381 45 33.6935 45 32.5V23.5C45 22.3065 44.5259 21.1619 43.682 20.318C42.8381 19.4741 41.6935 19 40.5 19ZM11 11.5C11 11.1022 11 10.4393 11.5 10.4393C11.5 10.4393 11.5 10.4393 12 10.4393H24H36C36.8396 10.4393 36.8396 10.4393 36.8396 10.4393C37.1209 10.7206 37 11.1022 37 11.5V19C35.8065 19 35.1619 19.4741 34.318 20.318C33.4741 21.1619 33 22.3065 33 23.5V25H15V23.5C15 22.3065 14.5259 21.1619 13.682 20.318C12.8381 19.4741 12.1935 19 11 19V15.5V11.5ZM42 32.5C42 32.8978 41.842 33.2794 41.5607 33.5607C41.2794 33.842 40.8978 34 40.5 34H7.5C7.10218 34 6.72064 33.842 6.43934 33.5607C6.15804 33.2794 6 32.8978 6 32.5V23.5C6 23.1022 6.15804 22.7206 6.43934 22.4393C6.72064 22.158 7.10218 22 7.5 22H10.5C10.8978 22 11.2794 22.158 11.5607 22.4393C11.842 22.7206 12 23.1022 12 23.5V29H36V23.5C36 23.1022 36.158 22.7206 36.4393 22.4393C36.7206 22.158 37.1022 22 37.5 22H40.5C40.8978 22 41.2794 22.158 41.5607 22.4393C41.842 22.7206 42 23.1022 42 23.5V32.5Z" fill="#6F1D03"/>
</svg>
