<svg width="47" height="43" viewBox="0 0 47 43" fill="none" xmlns="http://www.w3.org/2000/svg">
<path d="M26.0588 28.6668C26.0588 26.7079 25.1972 24.9162 23.7872 23.6262L12.7161 33.7551C14.1522 35.0212 16.0583 35.8334 18.2255 35.8334C22.56 35.8334 26.0588 32.6084 26.0588 28.6668Z" fill="#02A81C"/>
<path d="M0 38.2222C0 39.5361 1.175 40.6111 2.61111 40.6111H33.9444C35.4067 40.6111 36.5556 39.5361 36.5556 38.2222V14.3334H0V38.2222ZM18.2256 19.1111C24.064 19.1111 28.67 23.4613 28.67 28.6667C28.67 33.9461 23.9961 38.2222 18.2256 38.2222C12.4628 38.2222 7.78111 33.9557 7.78111 28.6667C7.78111 23.3872 12.455 19.1111 18.2256 19.1111ZM33.9444 2.38892H2.61111C1.175 2.38892 0 3.46392 0 4.7778V11.9445H36.5556V4.7778C36.5556 3.46392 35.4067 2.38892 33.9444 2.38892ZM7.83333 9.55558C6.39722 9.55558 5.22222 8.48058 5.22222 7.16669C5.22222 5.8528 6.39722 4.7778 7.83333 4.7778C9.29556 4.7778 10.4444 5.8528 10.4444 7.16669C10.4444 8.48058 9.29556 9.55558 7.83333 9.55558ZM15.6667 9.55558C14.2306 9.55558 13.0556 8.48058 13.0556 7.16669C13.0556 5.8528 14.2306 4.7778 15.6667 4.7778C17.1289 4.7778 18.2778 5.8528 18.2778 7.16669C18.2778 8.48058 17.1289 9.55558 15.6667 9.55558Z" fill="#02A81C"/>
</svg>
