<svg width="47" height="43" viewBox="0 0 47 43" fill="none" xmlns="http://www.w3.org/2000/svg">
<path fill-rule="evenodd" clip-rule="evenodd" d="M3.91667 12.5417C3.91667 11.1162 4.53564 9.74906 5.63741 8.74105C6.73919 7.73304 8.23352 7.16675 9.79167 7.16675H37.2083C38.7665 7.16675 40.2608 7.73304 41.3626 8.74105C42.4644 9.74906 43.0833 11.1162 43.0833 12.5417V30.4584H44.0625C44.8416 30.4584 45.5887 30.7416 46.1396 31.2456C46.6905 31.7496 47 32.4331 47 33.1459C47 33.8587 46.6905 34.5423 46.1396 35.0463C45.5887 35.5503 44.8416 35.8334 44.0625 35.8334H2.9375C2.15843 35.8334 1.41126 35.5503 0.860374 35.0463C0.309486 34.5423 0 33.8587 0 33.1459C0 32.4331 0.309486 31.7496 0.860374 31.2456C1.41126 30.7416 2.15843 30.4584 2.9375 30.4584H3.91667V12.5417ZM39.1667 28.6667V12.5417C39.1667 12.0666 38.9603 11.6109 38.5931 11.2748C38.2258 10.9388 37.7277 10.7501 37.2083 10.7501H9.79167C9.27228 10.7501 8.77418 10.9388 8.40692 11.2748C8.03966 11.6109 7.83333 12.0666 7.83333 12.5417V28.6667H39.1667Z" fill="#BCEB00"/>
</svg>
