<svg width="47" height="43" viewBox="0 0 47 43" fill="none" xmlns="http://www.w3.org/2000/svg">
<g clip-path="url(#clip0_55_30796)">
<path d="M17.625 26.875H7.34375C6.95421 26.875 6.58063 26.7334 6.30519 26.4814C6.02974 26.2294 5.875 25.8876 5.875 25.5312V17.4688C5.875 17.1124 6.02974 16.7706 6.30519 16.5186C6.58063 16.2666 6.95421 16.125 7.34375 16.125H17.625V6.71875C17.625 6.36237 17.7797 6.02058 18.0552 5.76858C18.3306 5.51657 18.7042 5.375 19.0938 5.375H27.9062C28.2958 5.375 28.6694 5.51657 28.9448 5.76858C29.2203 6.02058 29.375 6.36237 29.375 6.71875V16.125H39.6562C40.0458 16.125 40.4194 16.2666 40.6948 16.5186C40.9703 16.7706 41.125 17.1124 41.125 17.4688V25.5312C41.125 25.8876 40.9703 26.2294 40.6948 26.4814C40.4194 26.7334 40.0458 26.875 39.6562 26.875H29.375V36.2812C29.375 36.6376 29.2203 36.9794 28.9448 37.2314C28.6694 37.4834 28.2958 37.625 27.9062 37.625H19.0938C18.7042 37.625 18.3306 37.4834 18.0552 37.2314C17.7797 36.9794 17.625 36.6376 17.625 36.2812V26.875Z" stroke="#FF0000" stroke-width="4" stroke-linecap="round" stroke-linejoin="round"/>
</g>
<defs>
<clipPath id="clip0_55_30796">
<rect width="47" height="43" fill="white"/>
</clipPath>
</defs>
</svg>
