<svg width="47" height="43" viewBox="0 0 47 43" fill="none" xmlns="http://www.w3.org/2000/svg">
<path fill-rule="evenodd" clip-rule="evenodd" d="M24.2066 38.7224C25.3814 38.7224 26.0745 38.8738 27.2039 39.2845L27.5795 39.4212C28.7007 39.8262 29.4858 40 30.5947 40C34.0808 40 36.9829 36.988 36.9829 32.973C36.9829 26.7031 30.7123 20.1967 24.2066 20.1967C17.7009 20.1967 11.4303 26.7031 11.4303 32.973C11.4303 37.1854 14.2411 40 17.8184 40C18.9274 40 19.7125 39.8262 20.8336 39.4212L21.2093 39.2845C22.3387 38.8738 23.0318 38.7224 24.2066 38.7224ZM22.8561 9.14393C22.1981 5.41133 19.6876 2.56668 16.9177 3.05602C14.1472 3.54407 12.7616 7.07544 13.4195 10.8074C14.0775 14.54 16.5881 17.3847 19.358 16.8953C22.1285 16.4073 23.5141 12.8759 22.8561 9.14393ZM29.0552 16.896C31.8251 17.3847 34.3356 14.54 34.9936 10.808C35.6516 7.07545 34.2654 3.54343 31.4955 3.05474C28.7256 2.56605 26.215 5.41069 25.557 9.14265C24.8991 12.8753 26.2853 16.4073 29.0552 16.896ZM35.9148 23.3876C38.1736 25.0287 41.6066 23.7038 43.7339 20.7768C45.8605 17.8497 46.0592 14.1752 43.8003 12.5341C41.5415 10.893 38.1085 12.2179 35.9812 15.145C33.8546 18.072 33.6559 21.7465 35.9148 23.3876ZM12.4984 23.3876C14.7572 21.7458 14.5586 18.072 12.4319 15.145C10.3047 12.2179 6.87169 10.893 4.61283 12.5341C2.35398 14.1759 2.55265 17.8497 4.67927 20.7768C6.80653 23.7038 10.2395 25.0287 12.4984 23.3876Z" fill="#3A0909"/>
</svg>
