<svg width="47" height="43" viewBox="0 0 47 43" fill="none" xmlns="http://www.w3.org/2000/svg">
<path d="M44.5316 34.225L25.5 19.6L25.5 18C28.3185 17.025 30.4393 14.4812 30.4393 11.3125C30.4393 7.16875 27.386 4 23.3932 4C19.4004 4 16.347 7.16875 16.347 11.3125C16.347 12.775 17.2865 13.75 18.6957 13.75C20.105 13.75 20.7501 12.9534 20.7501 11.3125C20.5 9.5 21.9839 8.43069 23.3932 8.43069C24.8024 8.43069 26 9.85 26 11.3125C26 12.775 24.8024 13.75 23.3932 13.75C22.3658 13.75 21.5 14.5375 21.5 16V19.6L2.25476 33.9813C0.375794 35.2 -0.32882 37.15 0.140923 39.1C0.610665 41.5375 2.72451 43 5.30809 43H41.7131C44.2967 43 46.1757 41.5375 46.8803 39.3438C47.35 37.3937 46.4106 35.2 44.5316 34.225ZM43 38.5H4.24756L23.5 23.5L43 38.5Z" fill="#FF9110"/>
</svg>
