<svg width="47" height="43" viewBox="0 0 47 43" fill="none" xmlns="http://www.w3.org/2000/svg">
<path d="M26.4375 15.0768L32.0482 8.92244C32.2841 8.66478 32.406 8.33555 32.3897 7.99973C32.3734 7.6639 32.2201 7.34586 31.96 7.10837L29.0225 4.42087C28.8825 4.30546 28.724 4.2103 28.5525 4.13869C28.3487 4.05868 28.1278 4.02193 27.9063 4.03119H19.0938C18.8969 4.03153 18.7021 4.06809 18.521 4.13869C18.3495 4.2103 18.191 4.30546 18.051 4.42087L15.1135 7.10837C14.8534 7.34586 14.7001 7.6639 14.6838 7.99973C14.6675 8.33555 14.7894 8.66478 15.0253 8.92244L20.636 15.0768C17.4569 15.7223 14.6502 17.4187 12.7539 19.8407C10.8576 22.2626 10.0051 25.2398 10.36 28.2013C10.7149 31.1628 12.2521 33.9002 14.677 35.8888C17.1018 37.8773 20.2436 38.977 23.5 38.977C26.7564 38.977 29.8982 37.8773 32.3231 35.8888C34.7479 33.9002 36.2852 31.1628 36.64 28.2013C36.9949 25.2398 36.1425 22.2626 34.2462 19.8407C32.3499 17.4187 29.5431 15.7223 26.3641 15.0768H26.4375ZM23.5 35.8888C21.4666 35.8888 19.7257 35.5336 18.0349 34.5C16.3442 33.4664 14.9875 31.7188 14.2093 30C13.4312 28.2812 13.2661 26.8246 13.6628 25C14.0595 23.1754 14.9575 21.8155 16.3954 20.5C17.8332 19.1845 19.8661 18.3629 21.8605 18C23.8549 17.6371 25.447 17.7881 27.3256 18.5C29.2043 19.2119 30.568 19.9532 31.6977 21.5C32.8274 23.0469 33.3372 24.6396 33.3372 26.5C33.3372 28.9947 32.5328 31.236 30.6047 33C28.6766 34.764 26.2268 35.8888 23.5 35.8888Z" fill="#00B2EA"/>
</svg>
