<svg width="47" height="43" viewBox="0 0 47 43" fill="none" xmlns="http://www.w3.org/2000/svg">
<path d="M40.947 9.64853C40.7015 9.11687 40.2113 8.7391 39.6353 8.6365C39.057 8.53274 38.4688 8.71812 38.0549 9.13319L33.9852 13.2034C33.3824 13.8039 32.4001 13.8051 31.7973 13.2034C31.194 12.5995 31.194 11.6189 31.7973 11.015L35.867 6.94474C36.2809 6.53083 36.4669 5.94087 36.3637 5.36374C36.2611 4.78777 35.8834 4.29808 35.3517 4.05323C30.9993 2.042 25.801 2.96658 22.4151 6.35361C19.5936 9.17399 18.4679 13.3142 19.3994 17.1676L6.7427 29.8238C4.419 32.1486 4.419 35.9321 6.74328 38.2569C7.90571 39.4194 9.4325 40 10.9599 40C12.4867 40 14.014 39.4194 15.1765 38.2569L27.832 25.6008C31.6872 26.53 35.8262 25.4072 38.6472 22.5857C42.0336 19.1998 42.9576 14.0009 40.947 9.64853ZM36.1148 20.0533C33.9893 22.1776 30.7678 22.9016 27.9125 21.8931C27.2636 21.6681 26.5396 21.829 26.0511 22.3163L12.644 35.7245C11.7148 36.6526 10.2043 36.6526 9.27626 35.7245C8.3476 34.7965 8.3476 33.2842 9.27568 32.3562L22.6833 18.9491C23.1706 18.4618 23.335 17.7377 23.1059 17.0872C22.0991 14.2306 22.822 11.0115 24.9475 8.88602C26.4556 7.37846 28.4867 6.57981 30.5445 6.57981C30.7445 6.57981 30.9445 6.58798 31.1444 6.60313L29.2649 8.4826C28.2972 9.45033 27.7644 10.7375 27.7644 12.1098C27.7644 13.481 28.2972 14.7681 29.2649 15.7359C31.2657 17.7354 34.5192 17.7343 36.5176 15.7359L38.3977 13.8564C38.5691 16.1136 37.7692 18.3988 36.1148 20.0533Z" fill="#515151"/>
</svg>
