<svg width="47" height="43" viewBox="0 0 47 43" fill="none" xmlns="http://www.w3.org/2000/svg">
<path d="M36.9392 33.6609V4.0312C36.9392 2.01558 35.4704 0.739014 33.3407 0.739014H13.7329C11.7501 0.739014 9.98762 2.08276 10.0611 4.09839V38.9687C10.0611 40.9171 11.7501 42.3281 13.7329 42.2609H33.2673C35.2501 42.2609 37.0126 41.0515 37.0126 38.8343C36.9392 37.1546 36.9392 35.4078 36.9392 33.6609ZM23.5736 40.9843C22.3986 40.9843 21.4439 40.0437 21.4439 38.9687C21.4439 37.8937 22.3986 37.0203 23.5736 37.0203C24.7486 37.0203 25.7032 37.8937 25.7032 38.9687C25.7032 40.1109 24.7486 40.9843 23.5736 40.9843ZM33.8839 35.8109H13.1164V5.30776H33.8839V35.8109Z" fill="#1C1A97"/>
</svg>
