<svg width="47" height="43" viewBox="0 0 47 43" fill="none" xmlns="http://www.w3.org/2000/svg">
<path d="M43.8098 7.22754C37.3097 4.83642 30.0692 4.74572 23.4999 6.97312C16.9307 4.74572 9.69018 4.83642 3.19004 7.22754C2.82634 7.36047 2.51456 7.59013 2.29498 7.88684C2.0754 8.18355 1.95811 8.53367 1.95825 8.89199V35.8333C1.95813 36.1261 2.03645 36.4144 2.18633 36.6731C2.33622 36.9318 2.55312 37.1529 2.81805 37.3172C3.08298 37.4814 3.38786 37.5837 3.70603 37.6152C4.02419 37.6467 4.34595 37.6064 4.64313 37.4977C10.4599 35.3563 16.9566 35.3563 22.7734 37.4977C22.9912 37.5733 23.2219 37.6133 23.4549 37.616C23.4705 37.616 23.4843 37.616 23.4999 37.616C23.5156 37.616 23.5293 37.616 23.545 37.616C23.7779 37.6133 24.0086 37.5733 24.2265 37.4977C30.0432 35.3563 36.5399 35.3563 42.3567 37.4977C42.6538 37.6066 42.9755 37.6472 43.2937 37.6159C43.6118 37.5847 43.9168 37.4826 44.1819 37.3186C44.447 37.1542 44.664 36.9328 44.8139 36.6739C44.9638 36.4149 45.042 36.1263 45.0416 35.8333V8.89199C45.0417 8.53367 44.9244 8.18355 44.7049 7.88684C44.4853 7.59013 44.1735 7.36047 43.8098 7.22754ZM21.5416 33.3411C16.4276 31.9706 10.9922 31.965 5.87492 33.325V10.139C10.9562 8.56097 16.466 8.56916 21.5416 10.1623V33.3411ZM41.1249 33.325C36.0079 31.9687 30.5753 31.9687 25.4583 33.325V10.1623C30.5339 8.56916 36.0437 8.56097 41.1249 10.139V33.325Z" fill="#F6CF00"/>
</svg>
