<svg width="47" height="43" viewBox="0 0 47 43" fill="none" xmlns="http://www.w3.org/2000/svg">
<path d="M36.45 28.9C35.3523 28.9 34.2793 29.2255 33.3666 29.8353C32.4539 30.4452 31.7425 31.312 31.3225 32.3261C30.9024 33.3402 30.7925 34.4562 31.0066 35.5327C31.2208 36.6093 31.7494 37.5983 32.5256 38.3744C33.3017 39.1506 34.2907 39.6792 35.3672 39.8934C36.4438 40.1075 37.5598 39.9976 38.5739 39.5775C39.588 39.1575 40.4548 38.4461 41.0647 37.5334C41.6745 36.6207 42 35.5477 42 34.45C42 32.978 41.4153 31.5664 40.3744 30.5256C39.3336 29.4847 37.922 28.9 36.45 28.9ZM36.45 36.3C36.0841 36.3 35.7264 36.1915 35.4222 35.9882C35.118 35.7849 34.8808 35.496 34.7408 35.158C34.6008 34.8199 34.5642 34.4479 34.6355 34.0891C34.7069 33.7302 34.8831 33.4006 35.1418 33.1418C35.4006 32.8831 35.7302 32.7069 36.0891 32.6355C36.4479 32.5642 36.8199 32.6008 37.158 32.7408C37.496 32.8808 37.7849 33.118 37.9882 33.4222C38.1915 33.7264 38.3 34.0841 38.3 34.45C38.3 34.9406 38.1051 35.4112 37.7581 35.7581C37.4112 36.1051 36.9406 36.3 36.45 36.3ZM17.95 28.9C16.8523 28.9 15.7793 29.2255 14.8666 29.8353C13.9539 30.4452 13.2425 31.312 12.8225 32.3261C12.4024 33.3402 12.2925 34.4562 12.5066 35.5327C12.7208 36.6093 13.2494 37.5983 14.0256 38.3744C14.8017 39.1506 15.7907 39.6792 16.8672 39.8934C17.9438 40.1075 19.0598 39.9976 20.0739 39.5775C21.088 39.1575 21.9548 38.4461 22.5647 37.5334C23.1745 36.6207 23.5 35.5477 23.5 34.45C23.5 32.978 22.9153 31.5664 21.8744 30.5256C20.8336 29.4847 19.422 28.9 17.95 28.9ZM17.95 36.3C17.5841 36.3 17.2264 36.1915 16.9222 35.9882C16.618 35.7849 16.3808 35.496 16.2408 35.158C16.1008 34.8199 16.0642 34.4479 16.1355 34.0891C16.2069 33.7302 16.3831 33.4006 16.6419 33.1418C16.9006 32.8831 17.2302 32.7069 17.5891 32.6355C17.9479 32.5642 18.3199 32.6008 18.658 32.7408C18.996 32.8808 19.2849 33.118 19.4882 33.4222C19.6915 33.7264 19.8 34.0841 19.8 34.45C19.8 34.9406 19.6051 35.4112 19.2581 35.7581C18.9112 36.1051 18.4406 36.3 17.95 36.3ZM42 15.025C41.9951 11.8373 40.7266 8.78151 38.4726 6.52744C36.2185 4.27338 33.1627 3.00489 29.975 3H29.05C28.5593 3 28.0888 3.19491 27.7419 3.54185C27.3949 3.88879 27.2 4.35935 27.2 4.85V14.1H15.212L12.8995 7.9025C12.7672 7.54841 12.5296 7.24334 12.2187 7.02835C11.9078 6.81336 11.5385 6.69877 11.1605 6.7H6.85C6.35935 6.7 5.88879 6.89491 5.54185 7.24185C5.19491 7.58879 5 8.05935 5 8.55C5 9.04065 5.19491 9.5112 5.54185 9.85815C5.88879 10.2051 6.35935 10.4 6.85 10.4H9.884L12.1965 16.6345L13.14 19.169V19.3355C14.0019 21.6241 15.5471 23.5921 17.566 24.9722C19.5849 26.3524 21.9796 27.0778 24.425 27.05H29.975C31.5548 27.0524 33.1196 26.7431 34.5796 26.1396C36.0397 25.5362 37.3663 24.6505 38.4834 23.5334C39.6005 22.4163 40.4862 21.0897 41.0896 19.6296C41.6931 18.1696 42.0024 16.6048 42 15.025ZM35.858 20.908C35.0875 21.6837 34.1709 22.299 33.1611 22.7182C32.1512 23.1373 31.0683 23.3521 29.975 23.35H24.425C22.7713 23.3551 21.1541 22.8642 19.7822 21.9408C18.4103 21.0174 17.3468 19.7039 16.729 18.17C16.721 18.1334 16.721 18.0956 16.729 18.059L16.581 17.8H37.819C37.4156 18.9743 36.7442 20.0384 35.858 20.908ZM30.9 14.1V6.7C32.7951 6.89765 34.5646 7.74081 35.9119 9.0881C37.2592 10.4354 38.1023 12.2049 38.3 14.1H30.9Z" fill="#00BAAF"/>
</svg>
